<?xml version="1.0" standalone="no"?>
<!DOCTYPE svg PUBLIC "-//W3C//DTD SVG 1.1//EN" "http://www.w3.org/Graphics/SVG/1.1/DTD/svg11.dtd" >
<svg xmlns="http://www.w3.org/2000/svg">
<metadata></metadata>
<defs>
<font id="daxlinecyrlf-thinthin" horiz-adv-x="1187" >
<font-face units-per-em="2048" ascent="1638" descent="-410" />
<missing-glyph horiz-adv-x="593" />
<glyph horiz-adv-x="0" />
<glyph horiz-adv-x="0" />
<glyph unicode="&#xd;" horiz-adv-x="2048" />
<glyph unicode=" "  horiz-adv-x="593" />
<glyph unicode="&#x09;" horiz-adv-x="593" />
<glyph unicode="&#xa0;" horiz-adv-x="593" />
<glyph unicode="!" horiz-adv-x="532" d="M197 59q0 29 20 49.5t49 20.5t49.5 -20.5t20.5 -49.5t-20.5 -49t-49.5 -20t-49 20t-20 49zM221 1483h90l-10 -1041h-70z" />
<glyph unicode="&#x22;" horiz-adv-x="860" d="M184 1468q17 27 47 27q31 0 48 -27l-17 -608h-61zM582 1468q17 27 47 27t47 -27l-17 -608h-61z" />
<glyph unicode="#" horiz-adv-x="1576" d="M172 463v63h297l63 447h-286v63h297l63 447h72l-64 -447h433l63 447h72l-64 -447h287v-63h-297l-64 -447h287v-63h-297l-65 -463h-72l66 463h-433l-65 -463h-72l66 463h-287zM541 526h432l63 447h-432z" />
<glyph unicode="$" horiz-adv-x="1216" d="M164 55l35 68q58 -28 155.5 -50t167.5 -22q200 0 316 83.5t116 238.5q0 41 -11 77.5t-27.5 64.5t-46 54.5t-55 44.5t-68 39.5t-71 34t-75.5 31.5q-74 30 -126.5 55t-112 63.5t-96 79.5t-61 98.5t-24.5 123.5q0 160 112.5 255t295.5 107v293h82l-21 -291q85 -1 172 -23 t144 -53l-33 -67q-51 30 -132 51t-161 21q-175 0 -276 -76.5t-101 -216.5q0 -41 12.5 -77.5t31 -65t50.5 -56t60 -46.5t72.5 -41t74.5 -35t78 -32q70 -29 118 -51.5t105 -60t91 -77.5t57.5 -98t23.5 -126q0 -174 -129.5 -277t-335.5 -114v-308h-82l21 306q-81 2 -179 22.5 t-167 52.5z" />
<glyph unicode="%" horiz-adv-x="1945" d="M164 1042q0 211 77.5 336t221.5 125t221.5 -125t77.5 -336t-77.5 -335.5t-221.5 -124.5t-221.5 124.5t-77.5 335.5zM242 1042q0 -179 57 -285t164 -106t164 106t57 285t-57 285.5t-164 106.5t-164 -106.5t-57 -285.5zM664 10l548 1487l70 -24l-549 -1487zM1184 440 q0 211 77.5 336t221.5 125t221.5 -125t77.5 -336t-77.5 -335.5t-221.5 -124.5t-221.5 124.5t-77.5 335.5zM1262 440q0 -179 57 -285t164 -106t164 106t57 285t-57 285t-164 106t-164 -106t-57 -285z" />
<glyph unicode="&#x26;" horiz-adv-x="1470" d="M131 377q0 163 99.5 267t273.5 151v4q-153 32 -227 122.5t-74 217.5q0 174 119.5 269t324.5 95q82 0 167 -21t149 -55l-31 -65q-54 30 -134 50t-151 20q-171 0 -267.5 -74t-96.5 -219q0 -133 93 -214t234 -81q99 0 193 16l569 98l12 -69l-290 -49v-785 q-68 -30 -182 -52.5t-222 -22.5q-130 0 -230.5 22.5t-175 69.5t-114 124t-39.5 181zM211 377q0 -172 124.5 -249t354.5 -77q85 0 178 15.5t146 35.5v723l-367 -59q-221 -35 -328.5 -131.5t-107.5 -257.5z" />
<glyph unicode="'" horiz-adv-x="462" d="M184 1468q17 27 47 27q31 0 48 -27l-17 -608h-61z" />
<glyph unicode="(" horiz-adv-x="716" d="M160 606q0 126 22.5 248t57.5 222.5t89.5 206t107.5 187t124 177.5l62 -48q-82 -110 -144 -211.5t-119 -227t-87.5 -266.5t-30.5 -288t30.5 -288t87.5 -266.5t119 -227t144 -211.5l-62 -47q-71 96 -123.5 177.5t-107.5 187t-90 205.5t-57.5 222t-22.5 248z" />
<glyph unicode=")" horiz-adv-x="716" d="M94 -387q82 110 144 211.5t119 227t87.5 266.5t30.5 288t-30.5 288t-87.5 266.5t-119 227t-144 211.5l62 48q71 -96 124 -177.5t107.5 -187t89.5 -206t57.5 -222.5t22.5 -248t-22.5 -248t-57.5 -222t-90 -205.5t-107.5 -187t-123.5 -177.5z" />
<glyph unicode="*" horiz-adv-x="1228" d="M164 1280q0 31 35 45l393 -141l-10 424q17 20 43 20t43 -20l-11 -424l394 141q34 -14 34 -45q0 -17 -8 -33l-405 -119l254 -327q-2 -20 -16.5 -36.5t-35.5 -16.5q-12 0 -18 2l-231 344l-232 -344q-6 -2 -18 -2q-21 0 -35 16.5t-16 36.5l254 327l-406 119q-8 16 -8 33z " />
<glyph unicode="+" d="M164 629v73h391v402h78v-402h391v-73h-391v-402h-78v402h-391z" />
<glyph unicode="," horiz-adv-x="483" d="M45 -346l168 444q24 31 57 31q37 0 45 -31l-202 -444h-68z" />
<glyph unicode="-" horiz-adv-x="860" d="M164 625v82h532v-82h-532z" />
<glyph unicode="." horiz-adv-x="483" d="M172 59q0 29 20.5 49.5t49.5 20.5t49 -20.5t20 -49.5t-20 -49t-49 -20t-49.5 20t-20.5 49z" />
<glyph unicode="/" horiz-adv-x="901" d="M29 -362l696 1986l74 -29l-697 -1986z" />
<glyph unicode="0" d="M143 741q0 122 15.5 232t50.5 207.5t86 168.5t128 112.5t171 41.5q117 0 206 -62.5t141 -171t77.5 -241.5t25.5 -287t-25.5 -287t-77.5 -241.5t-141 -170.5t-206 -62q-94 0 -171 41.5t-128 112t-86 168.5t-50.5 207.5t-15.5 231.5zM223 741q0 -110 12.5 -208t40.5 -187.5 t70.5 -154t105.5 -102.5t142 -38t142 38t105.5 102.5t70.5 154t40.5 187.5t12.5 208t-12.5 208.5t-40.5 187.5t-70.5 154t-105.5 103t-142 38t-142 -38t-105.5 -103t-70.5 -154t-40.5 -187.5t-12.5 -208.5z" />
<glyph unicode="1" horiz-adv-x="876" d="M57 1249q148 29 283.5 88.5t218.5 145.5h64v-1483h-80v1366q-72 -59 -198.5 -108t-270.5 -78z" />
<glyph unicode="2" horiz-adv-x="1142" d="M57 0l629 705q47 53 77.5 91.5t63.5 91t49.5 106.5t16.5 110q0 154 -108.5 241t-303.5 87q-75 0 -162 -19t-151 -49l-37 63q166 76 350 76q228 0 360 -108.5t132 -290.5q0 -63 -19 -125.5t-54.5 -120.5t-71 -103t-83.5 -98l-526 -583h793v-74h-955z" />
<glyph unicode="3" horiz-adv-x="1064" d="M57 55l31 68q63 -32 154 -52t178 -20q198 0 318 96.5t120 262.5q0 118 -70.5 200t-181.5 118t-252 36l-45 -2v65q127 9 235 52t176 117.5t68 166.5q0 129 -95 199t-255 70q-162 0 -311 -68l-35 63q155 76 346 76q197 0 313.5 -91t116.5 -249q0 -69 -31 -130.5 t-81.5 -104.5t-109 -72t-118.5 -43v-4q54 -8 105.5 -23t108.5 -46t99 -73.5t69.5 -109t27.5 -147.5q0 -194 -141 -312t-377 -118q-200 0 -363 75z" />
<glyph unicode="4" horiz-adv-x="1126" d="M82 399v68l694 1016h88v-1018h176v-66h-176v-399h-76v399h-706zM164 465h627v747l4 195h-4q-46 -88 -101 -170z" />
<glyph unicode="5" horiz-adv-x="1073" d="M66 55l30 68q67 -33 155.5 -52.5t172.5 -19.5q198 0 320 101t122 270q0 183 -121 282t-372 99q-110 0 -226 -17l78 697h697v-74h-627l-62 -545q68 8 150 8q276 0 419.5 -119.5t143.5 -330.5q0 -194 -145 -318t-377 -124q-94 0 -190.5 20.5t-167.5 54.5z" />
<glyph unicode="6" d="M143 524q0 143 47.5 290t137.5 281.5t236.5 243.5t328.5 164l29 -69q-170 -50 -307 -151t-221.5 -223t-129.5 -263q59 29 144.5 48t162.5 19q215 0 348.5 -116t133.5 -324q0 -115 -55 -216t-159.5 -164.5t-234.5 -63.5q-146 0 -252 74.5t-157.5 196t-51.5 273.5zM221 524 q0 -134 42.5 -239t130.5 -169.5t210 -64.5q161 0 265 110.5t104 262.5q0 180 -110.5 274.5t-291.5 94.5q-73 0 -169 -22.5t-158 -53.5q-23 -108 -23 -193z" />
<glyph unicode="7" horiz-adv-x="1056" d="M41 1409v74h954l-721 -1483h-90l693 1409h-836z" />
<glyph unicode="8" horiz-adv-x="1171" d="M131 346q0 68 22 127t55.5 101.5t85.5 81t100 64t112 52.5q-72 32 -125.5 64.5t-103 78.5t-75.5 107t-26 135q0 150 112.5 248t297.5 98t297 -98t112 -248q0 -74 -26 -135t-75.5 -107t-102.5 -78.5t-125 -64.5q64 -27 112 -52.5t100 -64t85.5 -81t55 -101.5t21.5 -127 q0 -165 -127.5 -265.5t-326.5 -100.5t-327 100.5t-128 265.5zM209 346q0 -135 104.5 -216t272.5 -81t272.5 81t104.5 216q0 62 -21.5 115t-53.5 90t-86 73t-101 59t-115 52q-68 -29 -115 -52t-101 -59t-86 -73t-53.5 -90t-21.5 -115zM254 1157q0 -53 19 -99t48 -80.5 t75 -66.5t89 -54.5t101 -47.5q58 25 101 47.5t89 54.5t75 66.5t48 80.5t19 99q0 121 -90 199t-242 78t-242 -78t-90 -199z" />
<glyph unicode="9" d="M135 1059q0 115 55 216t159.5 164.5t234.5 63.5q110 0 198.5 -43t145 -117.5t86.5 -173t30 -211.5q0 -114 -29 -230.5t-90 -231.5t-148 -213.5t-211 -178.5t-271 -124l-29 69q170 50 307 151t221.5 223t129.5 263q-59 -30 -145 -49t-163 -19q-215 0 -348 116t-133 325z M215 1059q0 -180 110.5 -274.5t290.5 -94.5q73 0 169.5 22.5t158.5 53.5q23 108 23 192q0 134 -42.5 239.5t-130.5 170t-210 64.5q-161 0 -265 -110.5t-104 -262.5z" />
<glyph unicode=":" horiz-adv-x="540" d="M201 59q0 29 20 49.5t49 20.5t49.5 -20.5t20.5 -49.5t-20.5 -49t-49.5 -20t-49 20t-20 49zM201 715q0 29 20 49t49 20t49.5 -20t20.5 -49t-20.5 -49.5t-49.5 -20.5t-49 20.5t-20 49.5z" />
<glyph unicode=";" horiz-adv-x="540" d="M74 -346l168 444q24 31 57 31q37 0 45 -31l-203 -444h-67zM201 715q0 29 20 49t49 20t49.5 -20t20.5 -49t-20.5 -49.5t-49.5 -20.5t-49 20.5t-20 49.5z" />
<glyph unicode="&#x3c;" d="M164 635v61l860 424v-84l-774 -370l774 -371v-84z" />
<glyph unicode="=" d="M164 436v74h860v-74h-860zM164 821v74h860v-74h-860z" />
<glyph unicode="&#x3e;" d="M164 211v84l774 371l-774 370v84l860 -424v-61z" />
<glyph unicode="?" horiz-adv-x="937" d="M74 1427q58 33 150 54.5t182 21.5q198 0 307.5 -98.5t109.5 -261.5q0 -73 -34 -140.5t-88.5 -116t-114 -83t-119.5 -53.5l-6 -308h-70l-6 357q68 18 129 49t112.5 73.5t82 100t30.5 121.5q0 134 -85.5 210.5t-247.5 76.5q-79 0 -162 -19.5t-138 -48.5zM356 59 q0 29 20.5 49.5t49.5 20.5t49.5 -20.5t20.5 -49.5t-20.5 -49t-49.5 -20t-49.5 20t-20.5 49z" />
<glyph unicode="@" horiz-adv-x="2121" d="M143 518q0 160 41.5 306.5t124.5 270t198 215t270.5 142.5t334.5 51t325.5 -45t245.5 -122.5t166.5 -182.5t98 -222t30.5 -245q0 -177 -53.5 -314t-149.5 -221.5t-222.5 -127.5t-278.5 -43q-296 0 -460.5 144t-164.5 415q0 242 131 388t346 146q179 0 293 -94v-918 q235 45 358.5 202.5t123.5 422.5q0 119 -27.5 226.5t-88.5 204t-151 166t-223.5 110.5t-298.5 41q-166 0 -309 -47.5t-249 -132t-181.5 -199t-113.5 -251t-38 -286.5q0 -151 38 -285.5t118.5 -249.5t197 -197.5t283 -129.5t367.5 -47q196 0 360.5 52t286.5 138l37 -59 q-277 -201 -684 -201q-215 0 -393.5 51t-304.5 140.5t-213.5 213t-129 268t-41.5 306.5zM727 539q0 -244 143.5 -367t407.5 -123q40 0 63 2v897q-34 22 -93.5 39t-121.5 17q-183 0 -291 -125t-108 -340z" />
<glyph unicode="A" horiz-adv-x="1331" d="M66 0l557 1483h86l557 -1483h-86l-187 506h-655l-186 -506h-86zM365 575h602l-250 678q-13 34 -25 75t-18 65l-6 24h-4q-21 -88 -50 -164z" />
<glyph unicode="B" horiz-adv-x="1228" d="M188 55v1372q67 33 168 54.5t205 21.5q225 0 353 -100.5t128 -269.5q0 -76 -25.5 -141t-66 -107t-85.5 -69t-91 -38v-4q55 -11 107.5 -36.5t104.5 -69.5t84 -117.5t32 -165.5q0 -188 -143 -296.5t-390 -108.5q-97 0 -207 21.5t-174 53.5zM268 100q54 -22 138.5 -35.5 t162.5 -13.5q212 0 332.5 88.5t120.5 245.5q0 209 -176 295q-66 32 -132.5 43.5t-189.5 11.5h-256v-635zM268 805h246q136 0 199.5 13t126.5 56q56 39 89.5 108.5t33.5 150.5q0 139 -108.5 219t-293.5 80q-179 0 -293 -50v-577z" />
<glyph unicode="C" horiz-adv-x="1134" d="M135 741q0 190 46.5 338.5t126.5 239.5t182 137.5t219 46.5q200 0 311 -76l-31 -67q-42 30 -118 50t-162 20q-100 0 -186.5 -41t-155.5 -122t-108.5 -216t-39.5 -310q0 -140 26 -255.5t71.5 -195t108 -133.5t133.5 -79t151 -25q86 0 162 20t118 50l31 -68 q-110 -75 -311 -75q-117 0 -219 46.5t-182 137t-126.5 239t-46.5 338.5z" />
<glyph unicode="D" horiz-adv-x="1310" d="M184 55v1372q146 76 365 76q129 0 240.5 -47t198.5 -138t137.5 -239.5t50.5 -337.5t-50.5 -337.5t-137.5 -239t-198.5 -137.5t-240.5 -47q-110 0 -209 21.5t-156 53.5zM266 100q37 -21 114.5 -34t168.5 -13q113 0 209.5 41t172.5 122.5t119.5 216t43.5 308.5 q0 140 -28.5 255t-78.5 194.5t-119.5 134.5t-149.5 80t-169 25q-182 0 -283 -48v-1282z" />
<glyph unicode="E" horiz-adv-x="1044" d="M184 0v1483h750v-74h-670v-602h623v-74h-623v-659h670v-74h-750z" />
<glyph unicode="F" horiz-adv-x="1011" d="M184 0v1483h729v-74h-649v-602h604v-74h-604v-733h-80z" />
<glyph unicode="G" horiz-adv-x="1331" d="M135 741q0 152 34.5 278.5t94 215t140.5 149.5t174.5 90t195.5 29q107 0 199 -20.5t147 -55.5l-35 -65q-47 29 -131 48.5t-180 19.5q-89 0 -170 -25.5t-152 -80t-123 -134t-82 -195t-30 -254.5q0 -140 30 -255t82 -194.5t123 -134t152 -79.5t170 -25q99 0 183.5 14.5 t115.5 34.5v631h-391v74h473v-752q-56 -33 -155 -54t-226 -21q-102 0 -195.5 28.5t-174.5 90t-140.5 149.5t-94 214.5t-34.5 278.5z" />
<glyph unicode="H" horiz-adv-x="1310" d="M184 0v1483h82v-676h778v676h82v-1483h-82v733h-778v-733h-82z" />
<glyph unicode="I" horiz-adv-x="458" d="M188 0v1483h82v-1483h-82z" />
<glyph unicode="J" horiz-adv-x="458" d="M-152 -369q110 37 183.5 101t115 172.5t41.5 259.5v1319h82v-1319q0 -258 -108.5 -405t-313.5 -205v77z" />
<glyph unicode="K" horiz-adv-x="1122" d="M188 0v1483h82v-699h4l682 699h107l-688 -701l702 -782h-104l-699 780h-4v-780h-82z" />
<glyph unicode="L" horiz-adv-x="987" d="M188 0v1483h82v-1409h639v-74h-721z" />
<glyph unicode="M" horiz-adv-x="1773" d="M135 0l207 1483h113l387 -1231q11 -35 22 -77.5t16 -67.5l5 -25h4q18 92 43 170l387 1231h113l206 -1483h-79l-170 1253l-19 164h-4q-20 -88 -43 -162l-393 -1255h-86l-393 1255l-43 162h-5q-8 -88 -18 -164l-170 -1253h-80z" />
<glyph unicode="N" horiz-adv-x="1437" d="M184 0v1483h111l792 -1245q20 -31 41.5 -69t33.5 -61l12 -22h4q-2 92 -2 174v1223h77v-1483h-102l-805 1264q-19 31 -40 69.5t-32 60.5l-12 23h-4q4 -92 4 -172v-1245h-78z" />
<glyph unicode="O" horiz-adv-x="1396" d="M135 741q0 157 36 294t104.5 242t176 165.5t242.5 60.5t244 -60.5t179 -165.5t107.5 -242t37.5 -294t-37.5 -294t-107.5 -241.5t-179 -165t-244 -60.5t-242.5 60.5t-176 165t-104.5 241.5t-36 294zM217 741q0 -142 31 -265.5t89 -218t150 -149.5t207 -55t208.5 55 t153.5 149.5t92 218.5t32 265q0 112 -20 214.5t-60.5 189t-98 150t-136.5 99.5t-171 36q-152 0 -262 -95.5t-162.5 -249t-52.5 -344.5z" />
<glyph unicode="P" horiz-adv-x="1130" d="M184 0v1427q149 76 355 76q234 0 363.5 -115.5t129.5 -316.5q0 -194 -149 -312t-412 -118q-119 0 -205 14v-655h-82zM266 729q89 -14 205 -14q227 0 353 96.5t126 259.5q0 172 -107 265.5t-304 93.5q-165 0 -273 -48v-653z" />
<glyph unicode="Q" horiz-adv-x="1396" d="M135 741q0 157 36 294t104.5 242t176 165.5t242.5 60.5t244 -60.5t179 -165.5t107.5 -242t37.5 -294q0 -221 -73.5 -400.5t-209.5 -274.5l283 -385l-64 -48l-285 394q-96 -47 -219 -47q-135 0 -242.5 60.5t-176 165t-104.5 241.5t-36 294zM217 741q0 -142 31 -265.5 t89 -218t150 -149.5t207 -55t208.5 55t153.5 149.5t92 218.5t32 265q0 112 -20 214.5t-60.5 189t-98 150t-136.5 99.5t-171 36q-152 0 -262 -95.5t-162.5 -249t-52.5 -344.5z" />
<glyph unicode="R" horiz-adv-x="1204" d="M188 0v1425q69 35 168 56.5t195 21.5q235 0 363 -110.5t128 -284.5q0 -182 -103 -278t-286 -117v-4q100 -42 176 -187l281 -522h-92l-270 506q-51 96 -120 142t-173 46h-187v-694h-80zM268 764h228q111 0 194 18t145.5 57t95 106.5t32.5 162.5q0 147 -106 235.5 t-306 88.5q-169 0 -283 -50v-618z" />
<glyph unicode="S" horiz-adv-x="1073" d="M117 55l35 70q56 -30 137.5 -51t165.5 -21q178 0 290.5 86.5t112.5 239.5q0 54 -19.5 100.5t-47.5 78.5t-76 64t-87.5 51.5t-99.5 45.5q-59 25 -100 45t-91.5 49t-83.5 60t-63 69.5t-44.5 86.5t-14.5 104q0 171 122.5 270.5t311.5 99.5q91 0 175 -22t132 -54l-34 -69 q-48 30 -123 51t-150 21q-156 0 -254 -79t-98 -218q0 -54 22 -101t52.5 -79.5t83.5 -66t93 -52.5t103 -46q56 -24 92.5 -42t85 -46.5t79 -58t59.5 -68.5t43 -88t14 -106q0 -184 -137 -291.5t-348 -107.5q-198 0 -338 75z" />
<glyph unicode="T" horiz-adv-x="1052" d="M70 1409v74h913v-74h-416v-1409h-82v1409h-415z" />
<glyph unicode="U" horiz-adv-x="1286" d="M184 412v1071h82v-1071q0 -164 107.5 -261.5t269.5 -97.5t269.5 97.5t107.5 261.5v1071h82v-1071q0 -195 -131 -313.5t-328 -118.5t-328 118.5t-131 313.5z" />
<glyph unicode="V" horiz-adv-x="1245" d="M80 1483h86l399 -1213q13 -38 27 -85t22 -75l7 -28h4q26 102 55 188l399 1213h86l-497 -1483h-90z" />
<glyph unicode="W" horiz-adv-x="1851" d="M104 1483h82l306 -1204q10 -39 20 -88.5t15 -78.5l5 -30h5q18 109 41 197l305 1204h86l305 -1204q10 -39 20.5 -88.5t15.5 -78.5l5 -30h4q18 109 41 197l305 1204h82l-383 -1483h-90l-309 1210q-10 41 -19.5 88.5t-13.5 75.5l-4 27h-4q-14 -99 -37 -191l-309 -1210h-91z " />
<glyph unicode="X" horiz-adv-x="1171" d="M78 0l461 766l-433 717h91l387 -649h4l387 649h90l-432 -717l461 -766h-90l-416 698h-4l-416 -698h-90z" />
<glyph unicode="Y" horiz-adv-x="1228" d="M74 1483h92l446 -795h4l447 795h92l-500 -879v-604h-82v604z" />
<glyph unicode="Z" horiz-adv-x="1052" d="M74 0l741 1409h-711v74h838l-741 -1409h749v-74h-876z" />
<glyph unicode="[" horiz-adv-x="716" d="M205 -399v2007h389v-70h-311v-1868h311v-69h-389z" />
<glyph unicode="\" horiz-adv-x="901" d="M102 1595l74 29l696 -1986l-73 -29z" />
<glyph unicode="]" horiz-adv-x="716" d="M123 -330h311v1868h-311v70h389v-2007h-389v69z" />
<glyph unicode="^" horiz-adv-x="1155" d="M205 1010l323 385q21 24 50 24q28 0 49 -24l323 -385l-55 -49l-317 378l-318 -378z" />
<glyph unicode="_" d="M-8 -303h1204v-74h-1204v74z" />
<glyph unicode="`" horiz-adv-x="573" d="M102 1503q9 33 45 33q39 0 62 -33l156 -266h-72z" />
<glyph unicode="a" horiz-adv-x="1060" d="M115 303q0 54 13.5 99t35.5 79t58 62.5t72.5 47.5t89.5 34.5t97.5 24.5t107.5 16.5t109.5 10.5t112.5 7v107q0 75 -23 128t-66.5 82t-97 41.5t-122.5 12.5q-73 0 -156.5 -20.5t-136.5 -49.5l-27 64q61 31 149 53t171 22q85 0 153 -18t121.5 -56t83 -103.5t29.5 -155.5 v-736q-56 -32 -156.5 -53.5t-197.5 -21.5q-203 0 -311.5 87t-108.5 236zM193 303q0 -118 86 -186t256 -68q77 0 158 14t118 33v520q-236 -13 -335 -35q-228 -49 -272 -196q-11 -38 -11 -82z" />
<glyph unicode="b" horiz-adv-x="1114" d="M172 55v1553h78v-543q105 55 262 55q215 0 345 -150.5t130 -404.5q0 -152 -39.5 -267t-109.5 -183t-158.5 -101.5t-194.5 -33.5q-180 0 -313 75zM250 96q39 -19 103.5 -33t131.5 -14q71 0 132.5 17t115.5 55.5t92.5 97t61 147t22.5 199.5q0 225 -109 355.5t-288 130.5 q-69 0 -142 -15.5t-120 -40.5v-899z" />
<glyph unicode="c" horiz-adv-x="946" d="M127 553q0 121 27 219.5t71.5 162.5t105 107.5t123.5 62.5t130 19q69 0 139 -21t117 -54l-33 -62q-99 68 -223 68q-55 0 -107 -15.5t-101.5 -53t-86.5 -93.5t-59.5 -143.5t-22.5 -196.5t22.5 -196.5t59.5 -144t86.5 -94t101.5 -53.5t107 -16q124 0 223 68l33 -62 q-110 -75 -256 -75q-67 0 -130.5 19t-123.5 63t-104.5 108.5t-71.5 163t-27 219.5z" />
<glyph unicode="d" horiz-adv-x="1114" d="M127 532q0 259 134.5 420.5t371.5 161.5q133 0 231 -35v529h78v-1553q-44 -29 -133.5 -52t-179.5 -23q-234 0 -368 151.5t-134 400.5zM205 532q0 -219 111.5 -351t312.5 -132q63 0 135 14.5t100 32.5v914q-32 13 -101.5 23.5t-129.5 10.5q-204 0 -316 -142t-112 -370z " />
<glyph unicode="e" horiz-adv-x="1122" d="M127 553q0 257 124 414t333 157q187 0 299 -117t112 -329q0 -37 -2 -57l-790 -119q10 -221 123 -337t305 -116q82 0 162.5 19.5t132.5 50.5l30 -64q-54 -33 -141 -54t-184 -21q-232 0 -368 146.5t-136 426.5zM201 569l719 107q-1 189 -91 284t-245 95q-176 0 -277 -132.5 t-106 -353.5z" />
<glyph unicode="f" horiz-adv-x="679" d="M82 1042v62h170v170q0 160 100.5 247t251.5 87h14v-70h-8q-127 0 -204.5 -66.5t-77.5 -197.5v-170h270v-62h-270v-1042h-76v1042h-170z" />
<glyph unicode="g" horiz-adv-x="1114" d="M127 567q0 144 40 253.5t110.5 174.5t159 97t192.5 32q180 0 313 -75v-1069q0 -208 -110.5 -324.5t-315.5 -116.5q-85 0 -177.5 23.5t-150.5 54.5l33 64q54 -30 136.5 -51t158.5 -21q171 0 259.5 95.5t88.5 275.5v116q-105 -55 -262 -55q-212 0 -343.5 138.5 t-131.5 387.5zM205 567q0 -220 110 -338t287 -118q69 0 142 15t120 40v842q-39 19 -103.5 33t-131.5 14q-89 0 -163.5 -27t-134 -83t-93 -152.5t-33.5 -225.5z" />
<glyph unicode="h" horiz-adv-x="1126" d="M172 0v1608h78v-564q62 34 140 56t151 22q191 0 302 -94t111 -266v-762h-77v762q0 144 -89.5 217.5t-246.5 73.5q-72 0 -151.5 -23t-139.5 -59v-971h-78z" />
<glyph unicode="i" horiz-adv-x="446" d="M158 1434q0 28 18.5 46.5t46.5 18.5t47 -18.5t19 -46.5t-19 -47t-47 -19t-46.5 19t-18.5 47zM184 0v1104h78v-1104h-78z" />
<glyph unicode="j" horiz-adv-x="446" d="M-115 -377q132 45 215.5 163.5t83.5 309.5v1008h78v-1008q0 -119 -30.5 -216t-84.5 -161.5t-119 -106t-143 -63.5v74zM158 1434q0 28 18.5 46.5t46.5 18.5t47 -18.5t19 -46.5t-19 -47t-47 -19t-46.5 19t-18.5 47z" />
<glyph unicode="k" horiz-adv-x="1007" d="M180 0v1608h76v-1028h4l574 524h106l-580 -529l607 -575h-107l-600 575h-4v-575h-76z" />
<glyph unicode="l" horiz-adv-x="446" d="M184 0v1608h78v-1608h-78z" />
<glyph unicode="m" horiz-adv-x="1757" d="M172 0v1049q167 75 352 75q119 0 209.5 -39.5t134.5 -101.5q57 60 149 100.5t204 40.5q161 0 262.5 -93.5t101.5 -248.5v-782h-78v782q0 127 -80 200t-206 73q-197 0 -303 -125v-930h-78v819q0 107 -88 171.5t-228 64.5q-156 0 -274 -49v-1006h-78z" />
<glyph unicode="n" horiz-adv-x="1126" d="M172 0v1049q160 75 375 75q194 0 300.5 -96t106.5 -266v-762h-77v762q0 137 -84 215t-246 78q-174 0 -297 -49v-1006h-78z" />
<glyph unicode="o" horiz-adv-x="1138" d="M127 553q0 166 48.5 293t150 202.5t243.5 75.5q143 0 244.5 -75.5t150 -202.5t48.5 -293t-48.5 -293.5t-150.5 -203.5t-244 -76t-243.5 76t-150 203.5t-48.5 293.5zM205 553q0 -145 38.5 -256.5t122 -179.5t203.5 -68t204 68t122.5 179.5t38.5 256.5t-38.5 256 t-122.5 178.5t-204 67.5t-203.5 -67.5t-122 -178.5t-38.5 -256z" />
<glyph unicode="p" horiz-adv-x="1114" d="M172 -440v1489q50 30 139.5 52.5t173.5 22.5q234 0 368 -153t134 -402q0 -259 -134.5 -421t-371.5 -162q-135 0 -231 34v-460h-78zM250 90q33 -13 102 -24t129 -11q204 0 316 143t112 371q0 219 -111.5 352.5t-312.5 133.5q-66 0 -133.5 -14.5t-101.5 -32.5v-918z" />
<glyph unicode="q" horiz-adv-x="1114" d="M127 539q0 152 39.5 267t109.5 183t158.5 101.5t194.5 33.5q180 0 313 -75v-1489h-78v479q-105 -55 -262 -55q-215 0 -345 150.5t-130 404.5zM205 539q0 -225 109 -355.5t288 -130.5q69 0 142 15.5t120 40.5v899q-39 19 -103.5 33t-131.5 14q-71 0 -132.5 -17 t-115.5 -55.5t-92.5 -97t-61 -147t-22.5 -199.5z" />
<glyph unicode="r" horiz-adv-x="688" d="M172 0v1049q65 33 165.5 54t194.5 21q28 0 82 -4l-18 -69q-24 4 -70 4q-74 0 -151.5 -13.5t-124.5 -35.5v-1006h-78z" />
<glyph unicode="s" horiz-adv-x="909" d="M106 55l35 64q49 -29 125 -49.5t144 -20.5q134 0 215.5 60.5t81.5 164.5q0 43 -14 78t-35.5 60t-59.5 48.5t-73 39t-89 35.5q-57 21 -97 39.5t-81.5 46t-66.5 58.5t-40.5 74.5t-15.5 96.5q0 118 89.5 196t244.5 78q161 0 276 -75l-34 -64q-42 30 -108.5 50t-133.5 20 q-119 0 -187.5 -58.5t-68.5 -146.5q0 -42 13.5 -76.5t33 -57.5t56.5 -45t68 -35.5t83 -33.5q63 -24 102.5 -41.5t85.5 -46.5t71 -60t42.5 -77t17.5 -103q0 -133 -102.5 -213.5t-273.5 -80.5q-77 0 -161.5 20.5t-142.5 54.5z" />
<glyph unicode="t" horiz-adv-x="679" d="M74 1042v62h178v282l76 35v-317h262v-62h-262v-792q0 -94 55.5 -141.5t140.5 -47.5q42 0 66 9v-70q-19 -8 -66 -8q-120 0 -196 66.5t-76 191.5v792h-178z" />
<glyph unicode="u" horiz-adv-x="1105" d="M172 348v756h78v-756q0 -152 78 -225.5t235 -73.5q90 0 169 14.5t124 34.5v1006h78v-1049q-60 -32 -160 -53.5t-211 -21.5q-189 0 -290 92.5t-101 275.5z" />
<glyph unicode="v" horiz-adv-x="1077" d="M86 1104h80l319 -866l52 -156h4q24 86 51 156l319 866h80l-409 -1104h-86z" />
<glyph unicode="w" horiz-adv-x="1667" d="M98 1104h78l268 -871l39 -155h4q19 87 39 155l265 871h86l264 -871l39 -155h4q19 87 39 155l268 871h78l-348 -1104h-78l-273 889q-9 29 -17.5 64.5t-12.5 56.5l-4 20h-5q-14 -75 -34 -141l-273 -889h-78z" />
<glyph unicode="x" horiz-adv-x="1003" d="M74 0l383 573l-355 531h88l310 -469h4l309 469h88l-354 -531l383 -573h-88l-338 514h-4l-338 -514h-88z" />
<glyph unicode="y" horiz-adv-x="1077" d="M86 1104h80l330 -897q11 -29 21.5 -64t14.5 -55l5 -20h4q18 76 41 139l329 897h80l-577 -1544h-80l166 440z" />
<glyph unicode="z" horiz-adv-x="929" d="M78 0l606 1034h-578v70h703l-604 -1034h626v-70h-753z" />
<glyph unicode="{" horiz-adv-x="716" d="M98 567v74q83 9 130.5 75t47.5 173q0 92 -20 204.5t-20 217.5q0 140 76 218.5t208 78.5h49v-70h-49q-98 0 -152.5 -59t-54.5 -168q0 -105 20.5 -217.5t20.5 -204.5q0 -112 -44.5 -183.5t-119.5 -99.5v-4q75 -28 119.5 -99.5t44.5 -183.5q0 -92 -20.5 -204t-20.5 -217 q0 -109 54.5 -168.5t152.5 -59.5h49v-69h-49q-132 0 -208 78.5t-76 218.5q0 105 20 217t20 204q0 107 -47.5 173t-130.5 75z" />
<glyph unicode="|" horiz-adv-x="446" d="M184 -440v2048h78v-2048h-78z" />
<glyph unicode="}" horiz-adv-x="716" d="M147 -330h50q98 0 152 59.5t54 168.5q0 105 -20.5 217t-20.5 204q0 112 44.5 183.5t119.5 99.5v4q-75 28 -119.5 99.5t-44.5 183.5q0 92 20.5 204.5t20.5 217.5q0 109 -54 168t-152 59h-50v70h50q132 0 208 -78.5t76 -218.5q0 -105 -20.5 -217.5t-20.5 -204.5 q0 -107 47.5 -173t130.5 -75v-74q-83 -9 -130.5 -75t-47.5 -173q0 -92 20.5 -204t20.5 -217q0 -140 -76 -218.5t-208 -78.5h-50v69z" />
<glyph unicode="~" horiz-adv-x="1155" d="M184 684q28 73 84.5 114.5t132.5 41.5q48 0 98 -20t85 -43.5t80.5 -43.5t85.5 -20q115 0 165 123l56 -41q-28 -73 -84.5 -114.5t-132.5 -41.5q-48 0 -97.5 20t-84.5 43.5t-80.5 43.5t-85.5 20q-116 0 -166 -123z" />
<glyph unicode="&#xa3;" horiz-adv-x="1269" d="M164 0q58 60 102.5 115.5t91 129.5t72 156.5t25.5 165.5q0 103 -23 205h-219v70h199q-37 140 -37 264q0 178 113 287.5t303 109.5q165 0 288 -76l-32 -65q-116 68 -256 68q-157 0 -246.5 -87t-89.5 -237q0 -18 0.5 -35.5t1.5 -32t3 -31t3.5 -27t4.5 -27t4.5 -23.5 t5.5 -23.5t5 -21.5t5.5 -22.5t5.5 -20.5h376v-70h-360q22 -97 22 -205q0 -143 -62.5 -272t-147.5 -221h763v-74h-921z" />
<glyph unicode="&#xa7;" horiz-adv-x="1204" d="M164 612q0 65 20.5 121t59 99.5t77.5 74.5t91 62q-111 93 -111 229q0 142 99 223.5t259 81.5q79 0 153 -21t126 -55l-33 -61q-105 68 -246 68q-126 0 -203 -61.5t-77 -174.5q0 -131 133 -213l303 -186q113 -70 169 -152t56 -194q0 -58 -23.5 -113.5t-62 -99t-81.5 -76.5 t-89 -58q71 -53 108.5 -116.5t37.5 -149.5q0 -136 -101 -218.5t-272 -82.5q-75 0 -162 22.5t-135 53.5l33 63q37 -25 118 -47t146 -22q137 0 216 62t79 169q0 77 -39 133.5t-117 104.5l-313 194q-219 137 -219 340zM242 612q0 -166 180 -276l299 -186q101 50 171.5 129.5 t70.5 173.5q0 92 -46.5 158t-142.5 126l-301 189q-231 -124 -231 -314z" />
<glyph unicode="&#xa8;" horiz-adv-x="573" d="M49 1368q0 28 19 47t47 19t46.5 -19t18.5 -47t-18.5 -46.5t-46.5 -18.5t-47 18.5t-19 46.5zM393 1368q0 28 19 47t47 19t46.5 -19t18.5 -47t-18.5 -46.5t-46.5 -18.5t-47 18.5t-19 46.5z" />
<glyph unicode="&#xa9;" horiz-adv-x="1810" d="M143 741q0 155 60.5 296t162.5 243t243 162.5t296 60.5t296 -60.5t243 -162.5t162.5 -243t60.5 -296t-60.5 -296t-162.5 -242.5t-243 -162t-296 -60.5t-296 60.5t-243 162t-162.5 242.5t-60.5 296zM221 741q0 -141 54.5 -269.5t146 -221t218 -147t265.5 -54.5t265.5 54.5 t218 147t146 221t54.5 269.5t-54.5 269.5t-146 221t-218 147.5t-265.5 55t-265.5 -55t-218 -147.5t-146 -221t-54.5 -269.5zM532 745q0 110 31.5 197t85.5 140.5t123 81.5t148 28q129 0 219 -62l-35 -59q-77 51 -184 51q-62 0 -116 -21.5t-98.5 -64.5t-70 -118t-25.5 -173 t25.5 -172.5t70 -118t98.5 -64.5t116 -21q107 0 184 51l35 -60q-89 -61 -219 -61q-79 0 -148 27.5t-123 81t-85.5 140.5t-31.5 197z" />
<glyph unicode="&#xab;" horiz-adv-x="1167" d="M156 625l368 477l58 -47l-334 -430l334 -430l-58 -48zM565 625l369 477l57 -47l-334 -430l334 -430l-57 -48z" />
<glyph unicode="&#xac;" d="M164 629v73h860v-516h-78v443h-782z" />
<glyph unicode="&#xad;" horiz-adv-x="860" d="M164 625v82h532v-82h-532z" />
<glyph unicode="&#xae;" horiz-adv-x="1409" d="M135 940q0 116 45 221.5t121.5 181.5t182 121t221.5 45q155 0 286 -76t207 -207t76 -286t-76 -286t-207 -207t-286 -76q-116 0 -221.5 45t-182 121t-121.5 181.5t-45 221.5zM207 940q0 -138 66 -253.5t180.5 -183t251.5 -67.5t251.5 67.5t180 183t65.5 253.5t-65.5 253.5 t-180 183t-251.5 67.5t-251.5 -67.5t-180.5 -183t-66 -253.5zM514 623v626q73 37 180 37q114 0 178 -48t64 -132q0 -70 -43.5 -113t-116.5 -57v-4q36 -21 58 -62l141 -247h-78l-127 229q-19 33 -45 47t-70 14h-73v-290h-68zM582 975h90q100 0 148 30t48 101q0 56 -43.5 87.5 t-130.5 31.5q-61 0 -112 -15v-235z" />
<glyph unicode="&#xb0;" horiz-adv-x="929" d="M135 1176q0 135 96 230t234 95t234 -95t96 -230t-96 -230.5t-234 -95.5t-234 95.5t-96 230.5zM207 1176q0 -107 75.5 -182.5t182.5 -75.5t182.5 75.5t75.5 182.5t-75.5 182.5t-182.5 75.5t-182.5 -75.5t-75.5 -182.5z" />
<glyph unicode="&#xb1;" d="M164 0v74h860v-74h-860zM164 690v74h391v381h78v-381h391v-74h-391v-381h-78v381h-391z" />
<glyph unicode="&#xb4;" horiz-adv-x="573" d="M209 1237l156 266q23 33 61 33q36 0 45 -33l-190 -266h-72z" />
<glyph unicode="&#xb6;" horiz-adv-x="1167" d="M143 1102q0 192 120 296.5t331 104.5q227 0 389 -76v-1867h-78v1818q-56 25 -139 39.5t-152 14.5l-57 -2v-1870h-78v1155q-154 24 -245 123t-91 264z" />
<glyph unicode="&#xb7;" horiz-adv-x="483" d="M172 666q0 29 20.5 49t49.5 20t49 -20t20 -49t-20 -49.5t-49 -20.5t-49.5 20.5t-20.5 49.5z" />
<glyph unicode="&#xb8;" horiz-adv-x="573" d="M61 -395l33 61q56 -6 109 -6q94 0 151.5 21t57.5 65q0 70 -133 70q-51 0 -109 -6l33 61q52 6 92 6q103 0 150 -36.5t47 -94.5q0 -73 -75 -111t-216 -38q-72 0 -140 8z" />
<glyph unicode="&#xbb;" horiz-adv-x="1167" d="M176 195l334 430l-334 430l57 47l369 -477l-369 -478zM586 195l334 430l-334 430l57 47l369 -477l-369 -478z" />
<glyph unicode="&#xf7;" d="M164 629v73h860v-73h-860zM524 354q0 29 20.5 49.5t49.5 20.5t49.5 -20.5t20.5 -49.5t-20.5 -49t-49.5 -20t-49.5 20t-20.5 49zM524 977q0 29 20.5 49.5t49.5 20.5t49.5 -20.5t20.5 -49.5t-20.5 -49.5t-49.5 -20.5t-49.5 20.5t-20.5 49.5z" />
<glyph unicode="&#x192;" horiz-adv-x="1105" d="M33 -430l26 70q53 -21 105 -21q112 0 170 65.5t76 202.5l116 901h-250v70h261l38 307q41 332 326 332q74 0 131 -24l-26 -68q-50 20 -105 20q-112 0 -170 -65.5t-76 -202.5l-39 -299h299v-70h-307l-119 -911q-22 -166 -101 -249t-224 -83q-72 0 -131 25z" />
<glyph unicode="&#x2c6;" horiz-adv-x="573" d="M31 1276l200 203q25 28 56 28q30 0 55 -28l201 -203l-43 -39l-213 190l-213 -190z" />
<glyph unicode="&#x2da;" horiz-adv-x="573" d="M113 1399q0 70 51 120t123 50t123 -50t51 -120t-51 -120t-123 -50t-123 50t-51 120zM172 1399q0 -47 34 -81t81 -34t80.5 34t33.5 81t-33.5 80.5t-80.5 33.5t-81 -33.5t-34 -80.5z" />
<glyph unicode="&#x2dc;" horiz-adv-x="573" d="M31 1307q11 62 49.5 103.5t99.5 41.5q36 0 67 -17t49.5 -37.5t43.5 -37.5t49 -17q38 0 63 31.5t33 77.5l58 -35q-11 -62 -50 -103.5t-100 -41.5q-36 0 -67 17t-49.5 37t-43.5 37t-49 17q-38 0 -63 -31t-33 -77z" />
<glyph unicode="&#x401;" horiz-adv-x="1044" d="M184 0v1483h750v-74h-670v-602h623v-74h-623v-659h670v-74h-750zM317 1747q0 28 19 46.5t47 18.5t47 -18.5t19 -46.5t-19 -47t-47 -19t-47 19t-19 47zM662 1747q0 28 18.5 46.5t46.5 18.5t47 -18.5t19 -46.5t-19 -47t-47 -19t-46.5 19t-18.5 47z" />
<glyph unicode="&#x402;" horiz-adv-x="1421" d="M74 1409v74h958v-74h-545v-508q137 78 312 78q125 0 220 -45t152.5 -126t86 -186.5t28.5 -232.5q0 -264 -117 -470t-333 -308l-39 67q198 92 302.5 279t104.5 432q0 90 -14 167t-45.5 142t-78 110.5t-114.5 71t-153 25.5q-77 0 -163.5 -22.5t-148.5 -59.5v-823h-81v1409 h-332z" />
<glyph unicode="&#x403;" horiz-adv-x="983" d="M193 0v1483h720v-74h-639v-1409h-81zM477 1616l156 266q23 33 61 33q36 0 45 -33l-190 -266h-72z" />
<glyph unicode="&#x404;" horiz-adv-x="1228" d="M135 741q0 190 52 338.5t141.5 239.5t203.5 137.5t244 46.5q108 0 199.5 -20.5t146.5 -55.5l-32 -65q-47 29 -132 48.5t-182 19.5q-110 0 -205.5 -37t-173 -110.5t-126 -195.5t-56.5 -280h772v-74h-774q1 -139 31 -253.5t82.5 -192.5t124 -131.5t153 -78t172.5 -24.5 q97 0 182 19.5t132 48.5l32 -66q-55 -34 -146.5 -54.5t-199.5 -20.5q-104 0 -197.5 28.5t-175 89.5t-141 149t-93.5 214.5t-34 279.5z" />
<glyph unicode="&#x405;" horiz-adv-x="1073" d="M117 55l35 70q56 -30 137.5 -51t165.5 -21q178 0 290.5 86.5t112.5 239.5q0 54 -19.5 100.5t-47.5 78.5t-76 64t-87.5 51.5t-99.5 45.5q-59 25 -100 45t-91.5 49t-83.5 60t-63 69.5t-44.5 86.5t-14.5 104q0 171 122.5 270.5t311.5 99.5q91 0 175 -22t132 -54l-34 -69 q-48 30 -123 51t-150 21q-156 0 -254 -79t-98 -218q0 -54 22 -101t52.5 -79.5t83.5 -66t93 -52.5t103 -46q56 -24 92.5 -42t85 -46.5t79 -58t59.5 -68.5t43 -88t14 -106q0 -184 -137 -291.5t-348 -107.5q-198 0 -338 75z" />
<glyph unicode="&#x406;" horiz-adv-x="458" d="M188 0v1483h82v-1483h-82z" />
<glyph unicode="&#x407;" horiz-adv-x="458" d="M-8 1747q0 28 18.5 46.5t46.5 18.5t47 -18.5t19 -46.5t-19 -47t-47 -19t-46.5 19t-18.5 47zM188 0v1483h82v-1483h-82zM336 1747q0 28 18.5 46.5t46.5 18.5t47 -18.5t19 -46.5t-19 -47t-47 -19t-46.5 19t-18.5 47z" />
<glyph unicode="&#x408;" horiz-adv-x="458" d="M-152 -369q110 37 183.5 101t115 172.5t41.5 259.5v1319h82v-1319q0 -258 -108.5 -405t-313.5 -205v77z" />
<glyph unicode="&#x409;" horiz-adv-x="1998" d="M57 41q52 38 95.5 83.5t77 89t61.5 102t48 106t37.5 118t28 121t22 133t18 135.5t16.5 145q3 24 4 36l41 373h604v-656q95 31 233 31q247 0 390 -120t143 -318q0 -202 -130.5 -321t-363.5 -119q-207 0 -354 75v1354h-448l-33 -305q-1 -13 -4 -39q-13 -126 -21 -189 t-25.5 -173t-36 -174t-52 -153.5t-74 -151t-100.5 -128.5t-134 -121zM1110 100q106 -47 272 -47q197 0 304.5 97t107.5 270q0 169 -120 266.5t-331 97.5q-55 0 -125 -9t-108 -21v-654z" />
<glyph unicode="&#x40a;" horiz-adv-x="1933" d="M184 0v1483h82v-676h697v676h81v-656q95 31 234 31q247 0 389.5 -120t142.5 -318q0 -202 -130 -321t-363 -119q-207 0 -354 75v678h-697v-733h-82zM1044 100q106 -47 273 -47q197 0 304.5 97t107.5 270q0 169 -120 266.5t-331 97.5q-55 0 -125.5 -9t-108.5 -21v-654z" />
<glyph unicode="&#x40b;" horiz-adv-x="1413" d="M74 1409v74h958v-74h-545v-508q137 78 312 78q203 0 320.5 -105t117.5 -301v-573h-82v573q0 166 -95 249t-261 83q-77 0 -163.5 -22.5t-148.5 -59.5v-823h-81v1409h-332z" />
<glyph unicode="&#x40c;" horiz-adv-x="1167" d="M188 0v1483h82v-709h4l691 709h112l-688 -695q270 -55 424 -305l297 -483h-96l-279 457q-76 125 -195.5 200.5t-269.5 75.5v-733h-82zM483 1616l156 266q23 33 61 33q36 0 45 -33l-190 -266h-72z" />
<glyph unicode="&#x40e;" horiz-adv-x="1208" d="M102 1483h84q94 -437 445 -985h4q146 262 243 502t140 483h84q-45 -253 -146 -495.5t-256 -522.5l-258 -465h-92l242 424q-184 286 -308.5 543.5t-181.5 515.5zM348 1860l64 10q18 -94 63 -139t127 -45t127.5 45t63.5 139l63 -10q-7 -114 -76 -180t-178 -66t-178 66 t-76 180z" />
<glyph unicode="&#x40f;" horiz-adv-x="1298" d="M184 0v1483h82v-1409h766v1409h82v-1483h-422l-10 -299h-66l-10 299h-422z" />
<glyph unicode="&#x410;" horiz-adv-x="1331" d="M66 0l557 1483h86l557 -1483h-86l-187 506h-655l-186 -506h-86zM365 575h602l-250 678q-13 34 -25 75t-18 65l-6 24h-4q-21 -88 -50 -164z" />
<glyph unicode="&#x411;" horiz-adv-x="1183" d="M188 55v1428h721v-74h-639v-582q95 31 244 31q256 0 399.5 -117.5t143.5 -320.5t-131.5 -321.5t-372.5 -118.5q-98 0 -196.5 20t-168.5 55zM270 100q106 -47 283 -47q207 0 314.5 96t107.5 271q0 174 -120 269t-341 95q-60 0 -133 -9t-111 -21v-654z" />
<glyph unicode="&#x412;" horiz-adv-x="1228" d="M188 55v1372q67 33 168 54.5t205 21.5q225 0 353 -100.5t128 -269.5q0 -76 -25.5 -141t-66 -107t-85.5 -69t-91 -38v-4q55 -11 107.5 -36.5t104.5 -69.5t84 -117.5t32 -165.5q0 -188 -143 -296.5t-390 -108.5q-97 0 -207 21.5t-174 53.5zM268 100q54 -22 138.5 -35.5 t162.5 -13.5q212 0 332.5 88.5t120.5 245.5q0 209 -176 295q-66 32 -132.5 43.5t-189.5 11.5h-256v-635zM268 805h246q136 0 199.5 13t126.5 56q56 39 89.5 108.5t33.5 150.5q0 139 -108.5 219t-293.5 80q-179 0 -293 -50v-577z" />
<glyph unicode="&#x413;" horiz-adv-x="983" d="M193 0v1483h720v-74h-639v-1409h-81z" />
<glyph unicode="&#x414;" horiz-adv-x="1511" d="M90 45q323 281 416 1065l43 373h586l163 -1409l82 -29l-6 -344h-69l-9 299h-1122l-8 -299h-70zM221 70h996l-156 1339h-438l-35 -305q-15 -135 -41.5 -268t-69 -277t-108.5 -272.5t-148 -216.5z" />
<glyph unicode="&#x415;" horiz-adv-x="1044" d="M184 0v1483h750v-74h-670v-602h623v-74h-623v-659h670v-74h-750z" />
<glyph unicode="&#x416;" horiz-adv-x="1728" d="M61 0l291 506q127 225 355 282l-611 695h107l618 -715h4v715h78v-715h4l619 715h106l-610 -695q227 -56 354 -282l291 -506h-94l-273 479q-66 117 -167.5 188.5t-229.5 71.5v-739h-78v739q-128 0 -229.5 -71.5t-167.5 -188.5l-272 -479h-95z" />
<glyph unicode="&#x417;" horiz-adv-x="1150" d="M94 55l33 68q67 -31 162.5 -50.5t189.5 -19.5q215 0 339 95t124 262q0 90 -42 159t-117.5 110.5t-173.5 62t-216 20.5q-49 0 -76 -2v69q147 0 272 41.5t202 118.5t77 174q0 131 -99 199t-282 68t-342 -68l-34 65q166 76 376 76q216 0 339.5 -90t123.5 -250 q0 -69 -32.5 -130.5t-85.5 -104.5t-113.5 -72t-124.5 -43v-4q57 -8 111 -23t114 -46t104 -73.5t72.5 -109t28.5 -147.5q0 -194 -148 -312t-397 -118q-101 0 -204 20.5t-181 54.5z" />
<glyph unicode="&#x418;" horiz-adv-x="1441" d="M184 0v1483h80v-1223l-2 -174h4q41 82 86 152l795 1245h110v-1483h-79v1245l4 172h-4q-41 -83 -84 -153l-807 -1264h-103z" />
<glyph unicode="&#x419;" horiz-adv-x="1441" d="M184 0v1483h80v-1223l-2 -174h4q41 82 86 152l795 1245h110v-1483h-79v1245l4 172h-4q-41 -83 -84 -153l-807 -1264h-103zM459 1860l63 10q18 -94 63.5 -139t127.5 -45t127 45t63 139l64 -10q-7 -114 -76 -180t-178 -66t-178 66t-76 180z" />
<glyph unicode="&#x41a;" horiz-adv-x="1167" d="M188 0v1483h82v-709h4l691 709h112l-688 -695q270 -55 424 -305l297 -483h-96l-279 457q-76 125 -195.5 200.5t-269.5 75.5v-733h-82z" />
<glyph unicode="&#x41b;" horiz-adv-x="1437" d="M61 43q70 49 125.5 109.5t94.5 116t70.5 139.5t49 142t35.5 163.5t25.5 165.5t22.5 184q3 31 5 47l43 373h588l170 -1483h-84l-162 1409h-438l-35 -305q-2 -21 -7 -63q-14 -123 -22 -184.5t-26.5 -169.5t-38 -170.5t-54 -150.5t-77 -148.5t-105 -126t-139.5 -118.5z" />
<glyph unicode="&#x41c;" horiz-adv-x="1773" d="M135 0l207 1483h113l387 -1231q11 -35 22 -77.5t16 -67.5l5 -25h4q18 92 43 170l387 1231h113l206 -1483h-79l-170 1253l-19 164h-4q-20 -88 -43 -162l-393 -1255h-86l-393 1255l-43 162h-5q-8 -88 -18 -164l-170 -1253h-80z" />
<glyph unicode="&#x41d;" horiz-adv-x="1310" d="M184 0v1483h82v-676h778v676h82v-1483h-82v733h-778v-733h-82z" />
<glyph unicode="&#x41e;" horiz-adv-x="1396" d="M135 741q0 157 36 294t104.5 242t176 165.5t242.5 60.5t244 -60.5t179 -165.5t107.5 -242t37.5 -294t-37.5 -294t-107.5 -241.5t-179 -165t-244 -60.5t-242.5 60.5t-176 165t-104.5 241.5t-36 294zM217 741q0 -142 31 -265.5t89 -218t150 -149.5t207 -55t208.5 55 t153.5 149.5t92 218.5t32 265q0 112 -20 214.5t-60.5 189t-98 150t-136.5 99.5t-171 36q-152 0 -262 -95.5t-162.5 -249t-52.5 -344.5z" />
<glyph unicode="&#x41f;" horiz-adv-x="1310" d="M184 0v1483h942v-1483h-82v1409h-778v-1409h-82z" />
<glyph unicode="&#x420;" horiz-adv-x="1130" d="M184 0v1427q149 76 355 76q234 0 363.5 -115.5t129.5 -316.5q0 -194 -149 -312t-412 -118q-119 0 -205 14v-655h-82zM266 729q89 -14 205 -14q227 0 353 96.5t126 259.5q0 172 -107 265.5t-304 93.5q-165 0 -273 -48v-653z" />
<glyph unicode="&#x421;" horiz-adv-x="1134" d="M135 741q0 190 46.5 338.5t126.5 239.5t182 137.5t219 46.5q200 0 311 -76l-31 -67q-42 30 -118 50t-162 20q-100 0 -186.5 -41t-155.5 -122t-108.5 -216t-39.5 -310q0 -140 26 -255.5t71.5 -195t108 -133.5t133.5 -79t151 -25q86 0 162 20t118 50l31 -68 q-110 -75 -311 -75q-117 0 -219 46.5t-182 137t-126.5 239t-46.5 338.5z" />
<glyph unicode="&#x422;" horiz-adv-x="1052" d="M70 1409v74h913v-74h-416v-1409h-82v1409h-415z" />
<glyph unicode="&#x423;" horiz-adv-x="1208" d="M102 1483h84q94 -437 445 -985h4q146 262 243 502t140 483h84q-45 -253 -146 -495.5t-256 -522.5l-258 -465h-92l242 424q-184 286 -308.5 543.5t-181.5 515.5z" />
<glyph unicode="&#x424;" horiz-adv-x="1650" d="M127 741q0 180 78.5 325t230 231.5t350.5 86.5v140h78v-140q150 0 275 -50t208.5 -137t130 -204.5t46.5 -251.5t-46.5 -251.5t-130 -204.5t-208.5 -137t-275 -50v-139h-78v139q-199 0 -350.5 86.5t-230 231.5t-78.5 325zM209 741q0 -121 40 -226.5t113 -182.5 t182.5 -121.5t241.5 -44.5v1151q-132 0 -241.5 -44.5t-182.5 -122t-113 -183t-40 -226.5zM864 166q176 0 308.5 76.5t201 206t68.5 292.5t-68.5 293t-201 206.5t-308.5 76.5v-1151z" />
<glyph unicode="&#x425;" horiz-adv-x="1171" d="M78 0l461 766l-433 717h91l387 -649h4l387 649h90l-432 -717l461 -766h-90l-416 698h-4l-416 -698h-90z" />
<glyph unicode="&#x426;" horiz-adv-x="1323" d="M184 0v1483h82v-1409h766v1409h82v-1407l78 -31l-6 -344h-70l-8 299h-924z" />
<glyph unicode="&#x427;" horiz-adv-x="1265" d="M176 1051v432h82v-432q0 -186 103.5 -290t289.5 -104q78 0 185 24t163 58v744h82v-1483h-82v662q-57 -32 -163 -55t-185 -23q-220 0 -347.5 124.5t-127.5 342.5z" />
<glyph unicode="&#x428;" horiz-adv-x="1925" d="M184 0v1483h82v-1411h656v1411h82v-1411h655v1411h82v-1483h-1557z" />
<glyph unicode="&#x429;" horiz-adv-x="1949" d="M184 0v1483h82v-1411h656v1411h82v-1411h655v1411h82v-1409l78 -29l-7 -344h-69l-8 299h-1551z" />
<glyph unicode="&#x42a;" horiz-adv-x="1409" d="M70 1409v74h450v-656q95 31 234 31q247 0 389.5 -120t142.5 -318q0 -202 -130 -321t-363 -119q-208 0 -355 75v1354h-368zM520 100q106 -47 273 -47q197 0 304 97t107 270q0 169 -119.5 266.5t-330.5 97.5q-55 0 -125.5 -9t-108.5 -21v-654z" />
<glyph unicode="&#x42b;" horiz-adv-x="1523" d="M184 55v1428h82v-656q95 31 234 31q247 0 389.5 -120t142.5 -318q0 -202 -130 -321t-363 -119q-208 0 -355 75zM266 100q106 -47 273 -47q197 0 304 97t107 270q0 169 -119.5 266.5t-330.5 97.5q-55 0 -125.5 -9t-108.5 -21v-654zM1253 0v1483h82v-1483h-82z" />
<glyph unicode="&#x42c;" horiz-adv-x="1155" d="M184 55v1428h82v-656q95 31 234 31q247 0 389.5 -120t142.5 -318q0 -202 -130 -321t-363 -119q-208 0 -355 75zM266 100q106 -47 273 -47q197 0 304 97t107 270q0 169 -119.5 266.5t-330.5 97.5q-55 0 -125.5 -9t-108.5 -21v-654z" />
<glyph unicode="&#x42d;" horiz-adv-x="1228" d="M106 55l33 66q47 -29 132 -48.5t182 -19.5q91 0 172.5 24.5t153 78t124 131.5t82.5 192.5t31 253.5h-774v74h772q-8 158 -56.5 280t-126 195.5t-173 110.5t-205.5 37q-97 0 -182 -19.5t-132 -48.5l-33 65q55 35 147 55.5t200 20.5q130 0 244 -46.5t203.5 -137.5 t141.5 -239.5t52 -338.5q0 -153 -34 -279.5t-93.5 -214.5t-141 -149t-175 -89.5t-197.5 -28.5q-108 0 -200 20.5t-147 54.5z" />
<glyph unicode="&#x42e;" horiz-adv-x="1822" d="M184 0v1483h82v-676h428q5 144 36.5 266t89 220t152 154t216.5 56q104 0 188 -41.5t140.5 -112.5t94.5 -169t55 -207.5t17 -231.5t-17 -231.5t-55 -207.5t-94.5 -168.5t-140.5 -112t-188 -41.5q-128 0 -225.5 61.5t-155 168.5t-86 238.5t-29.5 284.5h-426v-733h-82z M772 741q0 -138 24 -258t72 -218t130.5 -155t189.5 -57t189 57t130 155t71.5 218t23.5 258t-23.5 258t-71.5 218.5t-130 155.5t-189 57q-86 0 -157 -38t-118.5 -102.5t-79.5 -153t-46.5 -187.5t-14.5 -208z" />
<glyph unicode="&#x42f;" horiz-adv-x="1241" d="M94 0l281 522q76 145 176 187v4q-183 21 -286 117t-103 278q0 178 133 286.5t379 108.5q105 0 207 -21t172 -57v-1425h-80v694h-223q-104 0 -173 -46t-120 -142l-271 -506h-92zM242 1108q0 -95 32.5 -162.5t95 -106.5t145.5 -57t194 -18h264v618q-114 50 -299 50 q-212 0 -322 -87t-110 -237z" />
<glyph unicode="&#x430;" horiz-adv-x="1060" d="M115 303q0 54 13.5 99t35.5 79t58 62.5t72.5 47.5t89.5 34.5t97.5 24.5t107.5 16.5t109.5 10.5t112.5 7v107q0 75 -23 128t-66.5 82t-97 41.5t-122.5 12.5q-73 0 -156.5 -20.5t-136.5 -49.5l-27 64q61 31 149 53t171 22q85 0 153 -18t121.5 -56t83 -103.5t29.5 -155.5 v-736q-56 -32 -156.5 -53.5t-197.5 -21.5q-203 0 -311.5 87t-108.5 236zM193 303q0 -118 86 -186t256 -68q77 0 158 14t118 33v520q-236 -13 -335 -35q-228 -49 -272 -196q-11 -38 -11 -82z" />
<glyph unicode="&#x431;" horiz-adv-x="1150" d="M143 678q0 217 43.5 378t138 279.5t245 190t362.5 100.5v-72q-286 -43 -447 -165t-223 -342q139 71 297 71q144 0 250.5 -74.5t160.5 -200.5t54 -286q0 -164 -48.5 -292.5t-148.5 -206.5t-237 -78q-147 0 -249 90.5t-150 245t-48 362.5zM219 678q0 -286 96 -457.5 t275 -171.5q113 0 195 68.5t121.5 182t39.5 257.5q0 139 -44 249t-133 176.5t-210 66.5q-166 0 -315 -76q-25 -137 -25 -295z" />
<glyph unicode="&#x432;" horiz-adv-x="1056" d="M176 55v994q66 36 153 55.5t169 19.5q180 0 284.5 -77t104.5 -205q0 -55 -19.5 -102.5t-50.5 -79t-66 -52t-71 -28.5v-5q42 -8 82 -27.5t79.5 -52.5t64 -86.5t24.5 -119.5q0 -142 -116 -225.5t-312 -83.5q-188 0 -326 75zM252 96q40 -22 110.5 -35.5t139.5 -13.5 q161 0 256.5 64.5t95.5 177.5q0 72 -34.5 127t-98.5 86q-49 23 -98 31t-140 8h-231v-445zM252 606h223q101 0 149.5 9.5t94.5 41.5q42 28 67 77.5t25 107.5q0 100 -84.5 157.5t-228.5 57.5q-67 0 -137 -14t-109 -35v-402z" />
<glyph unicode="&#x433;" horiz-adv-x="839" d="M180 0v1104h594v-70h-516v-1034h-78z" />
<glyph unicode="&#x434;" horiz-adv-x="1282" d="M82 43q43 30 80 68t65 74t53.5 86t42 87.5t33 95t25.5 91.5t20 95.5t15 87.5t12 85q1 8 2 12l41 279h492l118 -1032l78 -29l-6 -342h-66l-8 299h-909l-10 -299h-66zM211 66h795l-111 968h-356l-33 -219q-10 -65 -15 -96t-17 -97t-23 -105.5t-28 -100t-37 -102.5 t-45.5 -90t-58.5 -87t-71 -71z" />
<glyph unicode="&#x435;" horiz-adv-x="1122" d="M127 553q0 257 124 414t333 157q187 0 299 -117t112 -329q0 -37 -2 -57l-790 -119q10 -221 123 -337t305 -116q82 0 162.5 19.5t132.5 50.5l30 -64q-54 -33 -141 -54t-184 -21q-232 0 -368 146.5t-136 426.5zM201 569l719 107q-1 189 -91 284t-245 95q-176 0 -277 -132.5 t-106 -353.5z" />
<glyph unicode="&#x436;" horiz-adv-x="1433" d="M57 0l217 360q119 195 289 238l-497 506h104l506 -526h4v526h74v-526h4l506 526h104l-498 -506q168 -40 289 -238l217 -360h-88l-203 342q-129 215 -331 215v-557h-74v557q-203 0 -332 -215l-203 -342h-88z" />
<glyph unicode="&#x437;" horiz-adv-x="995" d="M82 55l35 62q57 -30 145 -49t180 -19q151 0 252 63.5t101 184.5q0 108 -92.5 176t-272.5 68h-162v67h154q158 0 243 59.5t85 163.5q0 76 -43.5 128t-109 74t-148.5 22q-79 0 -164.5 -19t-141.5 -49l-34 62q64 34 155.5 54.5t184.5 20.5q104 0 187.5 -31.5t137 -99 t53.5 -162.5q0 -98 -61 -164t-164 -83v-4q111 -16 190.5 -91t79.5 -192q0 -102 -60 -175t-155.5 -107.5t-214.5 -34.5q-210 0 -360 75z" />
<glyph unicode="&#x438;" horiz-adv-x="1171" d="M172 0v1104h74v-879l-4 -139h4q32 70 67 121l592 897h94v-1104h-73v897l4 135h-4q-31 -70 -66 -121l-602 -911h-86z" />
<glyph unicode="&#x439;" horiz-adv-x="1171" d="M172 0v1104h74v-879l-4 -139h4q32 70 67 121l592 897h94v-1104h-73v897l4 135h-4q-31 -70 -66 -121l-602 -911h-86zM326 1481l63 10q18 -94 63.5 -139t127.5 -45t127 45t63 139l64 -10q-7 -114 -76 -180t-178 -66t-178 66t-76 180z" />
<glyph unicode="&#x43a;" horiz-adv-x="983" d="M176 0v1104h78v-518h4l555 518h109l-560 -508q104 -25 179 -83t139 -151l250 -362h-90l-236 344q-61 90 -150.5 147.5t-199.5 57.5v-549h-78z" />
<glyph unicode="&#x43b;" horiz-adv-x="1212" d="M49 41q67 30 120 75t90.5 111t62 121t44.5 146.5t29 143t24 153.5q3 23 5 34l41 279h489l127 -1104h-77l-119 1034h-353l-32 -219q-3 -19 -8 -57q-12 -86 -19.5 -131t-25 -127.5t-35 -132.5t-49 -118t-69 -113t-92 -89.5t-120.5 -73.5z" />
<glyph unicode="&#x43c;" horiz-adv-x="1470" d="M123 0l158 1104h100l315 -891q9 -26 18 -59.5t14 -53.5l5 -20h4q17 76 37 133l316 891h100l158 -1104h-76l-123 903l-12 141h-4q-16 -78 -39 -139l-324 -905h-70l-323 905q-10 27 -20 62t-15 56l-4 21h-4q-4 -78 -12 -141l-123 -903h-76z" />
<glyph unicode="&#x43d;" horiz-adv-x="1093" d="M172 0v1104h78v-502h594v502h78v-1104h-78v532h-594v-532h-78z" />
<glyph unicode="&#x43e;" horiz-adv-x="1138" d="M127 553q0 166 48.5 293t150 202.5t243.5 75.5q143 0 244.5 -75.5t150 -202.5t48.5 -293t-48.5 -293.5t-150.5 -203.5t-244 -76t-243.5 76t-150 203.5t-48.5 293.5zM205 553q0 -145 38.5 -256.5t122 -179.5t203.5 -68t204 68t122.5 179.5t38.5 256.5t-38.5 256 t-122.5 178.5t-204 67.5t-203.5 -67.5t-122 -178.5t-38.5 -256z" />
<glyph unicode="&#x43f;" horiz-adv-x="1105" d="M172 0v1104h762v-1104h-78v1034h-606v-1034h-78z" />
<glyph unicode="&#x440;" horiz-adv-x="1114" d="M172 -440v1489q50 30 139.5 52.5t173.5 22.5q234 0 368 -153t134 -402q0 -259 -134.5 -421t-371.5 -162q-135 0 -231 34v-460h-78zM250 90q33 -13 102 -24t129 -11q204 0 316 143t112 371q0 219 -111.5 352.5t-312.5 133.5q-66 0 -133.5 -14.5t-101.5 -32.5v-918z" />
<glyph unicode="&#x441;" horiz-adv-x="946" d="M127 553q0 121 27 219.5t71.5 162.5t105 107.5t123.5 62.5t130 19q69 0 139 -21t117 -54l-33 -62q-99 68 -223 68q-55 0 -107 -15.5t-101.5 -53t-86.5 -93.5t-59.5 -143.5t-22.5 -196.5t22.5 -196.5t59.5 -144t86.5 -94t101.5 -53.5t107 -16q124 0 223 68l33 -62 q-110 -75 -256 -75q-67 0 -130.5 19t-123.5 63t-104.5 108.5t-71.5 163t-27 219.5z" />
<glyph unicode="&#x442;" horiz-adv-x="901" d="M66 1034v70h770v-70h-347v-1034h-77v1034h-346z" />
<glyph unicode="&#x443;" horiz-adv-x="1089" d="M102 1104h80q80 -438 379 -1026h4q270 546 342 1026h80q-79 -496 -362 -1061l-242 -483h-86l227 440q-159 304 -265.5 570t-156.5 534z" />
<glyph unicode="&#x444;" horiz-adv-x="1533" d="M131 553q0 84 12 161.5t41.5 153.5t74.5 131.5t116.5 90t161.5 34.5q108 0 192 -61v545h76v-545q84 61 192 61q90 0 161.5 -34.5t116.5 -90t74.5 -131.5t41.5 -153.5t12 -161.5q0 -69 -8.5 -134.5t-27 -131t-51 -120t-76 -97t-106 -66.5t-137.5 -24q-108 0 -192 61v-481 h-76v481q-84 -61 -192 -61q-75 0 -137.5 24t-106 66.5t-76 97t-51 120t-27 131t-8.5 134.5zM207 553q0 -70 8.5 -136.5t32 -135.5t59 -120t95 -83.5t135.5 -32.5q109 0 192 59v895q-84 60 -192 60q-76 0 -135.5 -32.5t-95 -83t-59 -119.5t-32 -135t-8.5 -136zM805 104 q83 -59 192 -59q76 0 135.5 32.5t95 83.5t59 120t32 135.5t8.5 136.5t-8.5 136t-32 135t-59 119.5t-95 83t-135.5 32.5q-108 0 -192 -60v-895z" />
<glyph unicode="&#x445;" horiz-adv-x="1003" d="M74 0l383 573l-355 531h88l310 -469h4l309 469h88l-354 -531l383 -573h-88l-338 514h-4l-338 -514h-88z" />
<glyph unicode="&#x446;" horiz-adv-x="1118" d="M172 0v1104h78v-1034h594v1034h78v-1032l73 -29l-6 -342h-65l-9 299h-743z" />
<glyph unicode="&#x447;" horiz-adv-x="1093" d="M160 793v311h78v-311q0 -312 323 -312q147 0 283 82v541h78v-1104h-78v489q-140 -77 -283 -77q-194 0 -297.5 97t-103.5 284z" />
<glyph unicode="&#x448;" horiz-adv-x="1658" d="M172 0v1104h78v-1036h541v1036h77v-1036h541v1036h78v-1104h-1315z" />
<glyph unicode="&#x449;" horiz-adv-x="1683" d="M172 0v1104h78v-1036h541v1036h77v-1036h541v1036h78v-1032l74 -29l-7 -342h-65l-8 299h-1309z" />
<glyph unicode="&#x44a;" horiz-adv-x="1183" d="M66 1034v70h372v-469q105 33 213 33q201 0 305.5 -94t104.5 -252q0 -157 -103.5 -249.5t-287.5 -92.5q-173 0 -310 75v979h-294zM438 98q39 -20 105 -34.5t127 -14.5q153 0 233 71t80 202t-82 203.5t-250 72.5q-45 0 -109.5 -9.5t-103.5 -21.5v-469z" />
<glyph unicode="&#x44b;" horiz-adv-x="1327" d="M172 55v1049h78v-469q105 33 213 33q201 0 305 -94t104 -252q0 -157 -103.5 -249.5t-287.5 -92.5q-172 0 -309 75zM250 98q39 -20 105 -34.5t126 -14.5q154 0 234 71.5t80 201.5q0 131 -82 203.5t-250 72.5q-45 0 -109.5 -9.5t-103.5 -21.5v-469zM1077 0v1104h78v-1104 h-78z" />
<glyph unicode="&#x44c;" horiz-adv-x="995" d="M172 55v1049h78v-469q105 33 213 33q201 0 305 -94t104 -252q0 -157 -103.5 -249.5t-287.5 -92.5q-172 0 -309 75zM250 98q39 -20 105 -34.5t126 -14.5q154 0 234 71.5t80 201.5q0 131 -82 203.5t-250 72.5q-45 0 -109.5 -9.5t-103.5 -21.5v-469z" />
<glyph unicode="&#x44d;" horiz-adv-x="1015" d="M102 55l33 62q38 -29 109.5 -48.5t136.5 -19.5q69 0 130.5 18t116 56.5t94.5 94.5t63.5 138t25.5 181h-602v69h600q-7 115 -44 203t-96.5 141t-132 79t-155.5 26q-64 0 -135.5 -20t-110.5 -48l-33 62q48 36 124 55.5t155 19.5q82 0 156.5 -21.5t139 -67t111.5 -111.5 t74 -161t27 -210q0 -143 -41 -254.5t-112 -180t-161 -103.5t-194 -35q-79 0 -155 19.5t-124 55.5z" />
<glyph unicode="&#x44e;" horiz-adv-x="1507" d="M172 0v1104h78v-498h301q11 232 118 375t292 143q131 0 225.5 -75.5t140 -203t45.5 -292.5q0 -166 -45.5 -293.5t-140 -203.5t-225.5 -76q-129 0 -222.5 73.5t-140.5 198t-49 285.5h-299v-537h-78zM625 553q0 -222 87 -363t249 -141q108 0 184.5 68t112.5 179.5t36 256.5 t-36 256t-112.5 178.5t-184.5 67.5q-109 0 -186 -67.5t-113.5 -178.5t-36.5 -256z" />
<glyph unicode="&#x44f;" horiz-adv-x="1056" d="M98 0l189 360q61 115 149 154v4q-129 18 -207.5 94.5t-78.5 200.5q0 139 107.5 225t295.5 86q199 0 328 -75v-1049h-76v496h-221q-142 0 -219 -148l-181 -348h-86zM225 813q0 -119 84 -185.5t254 -66.5h242v449q-89 47 -252 47q-157 0 -242.5 -66t-85.5 -178z" />
<glyph unicode="&#x451;" horiz-adv-x="1122" d="M127 553q0 257 124 414t333 157q187 0 299 -117t112 -329q0 -37 -2 -57l-790 -119q10 -221 123 -337t305 -116q82 0 162.5 19.5t132.5 50.5l30 -64q-54 -33 -141 -54t-184 -21q-232 0 -368 146.5t-136 426.5zM201 569l719 107q-1 189 -91 284t-245 95q-176 0 -277 -132.5 t-106 -353.5zM332 1368q0 28 18.5 47t46.5 19t47 -19t19 -47t-19 -46.5t-47 -18.5t-46.5 18.5t-18.5 46.5zM676 1368q0 28 18.5 47t46.5 19t47 -19t19 -47t-19 -46.5t-47 -18.5t-46.5 18.5t-18.5 46.5z" />
<glyph unicode="&#x452;" horiz-adv-x="1126" d="M0 1319v61h172v228h78v-228h377v-61h-377v-272q118 75 258 75q100 0 181 -34.5t137 -94.5t93.5 -144t54.5 -181t17 -207q0 -186 -53.5 -353t-158 -296.5t-247.5 -196.5l-36 63q198 93 307.5 304.5t109.5 478.5q0 125 -23 229t-70 187t-126.5 129.5t-185.5 46.5 q-133 0 -258 -80v-973h-78v1319h-172z" />
<glyph unicode="&#x453;" horiz-adv-x="839" d="M180 0v1104h594v-70h-516v-1034h-78zM406 1237l155 266q23 33 62 33q36 0 45 -33l-191 -266h-71z" />
<glyph unicode="&#x454;" horiz-adv-x="1015" d="M127 553q0 115 27 210t74 161t111.5 111.5t139 67t156.5 21.5q79 0 154.5 -19.5t123.5 -55.5l-32 -62q-39 28 -110.5 48t-135.5 20q-83 0 -155.5 -26t-132 -79t-96.5 -141t-44 -203h600v-69h-602q2 -99 25.5 -181t63.5 -138t94.5 -94.5t116 -56.5t130.5 -18 q65 0 136.5 19.5t109.5 48.5l32 -62q-48 -36 -123.5 -55.5t-154.5 -19.5q-104 0 -194 35t-161 103.5t-112 180t-41 254.5z" />
<glyph unicode="&#x455;" horiz-adv-x="909" d="M106 55l35 64q49 -29 125 -49.5t144 -20.5q134 0 215.5 60.5t81.5 164.5q0 43 -14 78t-35.5 60t-59.5 48.5t-73 39t-89 35.5q-57 21 -97 39.5t-81.5 46t-66.5 58.5t-40.5 74.5t-15.5 96.5q0 118 89.5 196t244.5 78q161 0 276 -75l-34 -64q-42 30 -108.5 50t-133.5 20 q-119 0 -187.5 -58.5t-68.5 -146.5q0 -42 13.5 -76.5t33 -57.5t56.5 -45t68 -35.5t83 -33.5q63 -24 102.5 -41.5t85.5 -46.5t71 -60t42.5 -77t17.5 -103q0 -133 -102.5 -213.5t-273.5 -80.5q-77 0 -161.5 20.5t-142.5 54.5z" />
<glyph unicode="&#x456;" horiz-adv-x="446" d="M158 1368q0 28 18.5 47t46.5 19t47 -19t19 -47t-19 -46.5t-47 -18.5t-46.5 18.5t-18.5 46.5zM184 0v1104h78v-1104h-78z" />
<glyph unicode="&#x457;" horiz-adv-x="446" d="M-14 1368q0 28 18.5 47t46.5 19t47 -19t19 -47t-19 -46.5t-47 -18.5t-46.5 18.5t-18.5 46.5zM184 0v1104h78v-1104h-78zM330 1368q0 28 18.5 47t46.5 19t47 -19t19 -47t-19 -46.5t-47 -18.5t-46.5 18.5t-18.5 46.5z" />
<glyph unicode="&#x458;" horiz-adv-x="446" d="M-115 -377q132 45 215.5 163.5t83.5 309.5v1008h78v-1008q0 -119 -30.5 -216t-84.5 -161.5t-119 -106t-143 -63.5v74zM158 1368q0 28 18.5 47t46.5 19t47 -19t19 -47t-19 -46.5t-47 -18.5t-46.5 18.5t-18.5 46.5z" />
<glyph unicode="&#x459;" horiz-adv-x="1683" d="M49 41q64 30 115 76t87 114t59.5 123.5t43.5 150t28.5 146t22.5 155.5q1 4 1.5 6.5t1 6t0.5 6.5l38 279h492v-469q105 33 213 33q201 0 305.5 -94t104.5 -252q0 -157 -104 -249.5t-288 -92.5q-172 0 -309 75v979h-346l-31 -219q-2 -14 -6 -44q-14 -101 -23 -155.5 t-29.5 -149.5t-47 -155t-66 -130.5t-97 -121t-130.5 -84.5zM938 98q39 -20 105 -34.5t126 -14.5q154 0 234 71.5t80 201.5q0 131 -82 203.5t-250 72.5q-45 0 -109.5 -9.5t-103.5 -21.5v-469z" />
<glyph unicode="&#x45a;" horiz-adv-x="1638" d="M172 0v1104h78v-498h565v498h78v-469q105 33 213 33q201 0 305.5 -94t104.5 -252q0 -157 -104 -249.5t-288 -92.5q-172 0 -309 75v482h-565v-537h-78zM893 98q39 -20 105 -34.5t126 -14.5q154 0 234 71.5t80 201.5q0 131 -82 203.5t-250 72.5q-45 0 -109.5 -9.5 t-103.5 -21.5v-469z" />
<glyph unicode="&#x45b;" horiz-adv-x="1114" d="M0 1319v61h172v228h78v-228h377v-61h-377v-275q129 78 285 78q190 0 298.5 -93.5t108.5 -266.5v-762h-78v762q0 146 -86.5 218.5t-242.5 72.5q-71 0 -147.5 -22.5t-137.5 -59.5v-971h-78v1319h-172z" />
<glyph unicode="&#x45c;" horiz-adv-x="983" d="M176 0v1104h78v-518h4l555 518h109l-560 -508q104 -25 179 -83t139 -151l250 -362h-90l-236 344q-61 90 -150.5 147.5t-199.5 57.5v-549h-78zM414 1237l155 266q23 33 62 33q36 0 45 -33l-191 -266h-71z" />
<glyph unicode="&#x45e;" horiz-adv-x="1089" d="M102 1104h80q80 -438 379 -1026h4q270 546 342 1026h80q-79 -496 -362 -1061l-242 -483h-86l227 440q-159 304 -265.5 570t-156.5 534zM291 1481l63 10q18 -94 63.5 -139t127.5 -45t127 45t63 139l64 -10q-7 -114 -76 -180t-178 -66t-178 66t-76 180z" />
<glyph unicode="&#x45f;" horiz-adv-x="1105" d="M172 0v1104h78v-1034h606v1034h78v-1104h-340l-10 -299h-62l-10 299h-340z" />
<glyph unicode="&#x490;" horiz-adv-x="995" d="M193 0v1483h651v266h82v-340h-652v-1409h-81z" />
<glyph unicode="&#x491;" horiz-adv-x="851" d="M180 0v1104h529v252h77v-322h-528v-1034h-78z" />
<glyph unicode="&#x2000;" horiz-adv-x="957" />
<glyph unicode="&#x2001;" horiz-adv-x="1915" />
<glyph unicode="&#x2002;" horiz-adv-x="957" />
<glyph unicode="&#x2003;" horiz-adv-x="1915" />
<glyph unicode="&#x2004;" horiz-adv-x="638" />
<glyph unicode="&#x2005;" horiz-adv-x="478" />
<glyph unicode="&#x2006;" horiz-adv-x="319" />
<glyph unicode="&#x2007;" horiz-adv-x="319" />
<glyph unicode="&#x2008;" horiz-adv-x="239" />
<glyph unicode="&#x2009;" horiz-adv-x="383" />
<glyph unicode="&#x200a;" horiz-adv-x="106" />
<glyph unicode="&#x2010;" horiz-adv-x="860" d="M164 625v82h532v-82h-532z" />
<glyph unicode="&#x2011;" horiz-adv-x="860" d="M164 625v82h532v-82h-532z" />
<glyph unicode="&#x2012;" horiz-adv-x="860" d="M164 625v82h532v-82h-532z" />
<glyph unicode="&#x2013;" horiz-adv-x="819" d="M-8 629v73h835v-73h-835z" />
<glyph unicode="&#x2014;" horiz-adv-x="1638" d="M184 629v73h1270v-73h-1270z" />
<glyph unicode="&#x2018;" horiz-adv-x="507" d="M119 1163l203 445h67l-168 -445q-23 -30 -57 -30q-38 0 -45 30z" />
<glyph unicode="&#x2019;" horiz-adv-x="507" d="M119 1141l168 444q24 31 57 31q37 0 45 -31l-203 -444h-67z" />
<glyph unicode="&#x201a;" horiz-adv-x="507" d="M119 -346l168 444q24 31 57 31q37 0 45 -31l-203 -444h-67z" />
<glyph unicode="&#x201c;" horiz-adv-x="827" d="M119 1163l203 445h67l-168 -445q-23 -30 -57 -30q-38 0 -45 30zM438 1163l203 445h68l-168 -445q-23 -30 -58 -30q-37 0 -45 30z" />
<glyph unicode="&#x201d;" horiz-adv-x="827" d="M119 1141l168 444q24 31 57 31q37 0 45 -31l-203 -444h-67zM438 1141l168 444q24 31 58 31q37 0 45 -31l-203 -444h-68z" />
<glyph unicode="&#x201e;" horiz-adv-x="827" d="M119 -346l168 444q24 31 57 31q37 0 45 -31l-203 -444h-67zM438 -346l168 444q24 31 58 31q37 0 45 -31l-203 -444h-68z" />
<glyph unicode="&#x2020;" horiz-adv-x="1245" d="M152 1034v70h432v504h78v-504h432v-70h-432v-1474h-78v1474h-432z" />
<glyph unicode="&#x2021;" horiz-adv-x="1245" d="M152 379v70h432v585h-432v70h432v504h78v-504h432v-70h-432v-585h432v-70h-432v-819h-78v819h-432z" />
<glyph unicode="&#x2022;" horiz-adv-x="614" d="M184 666q0 51 36 86.5t87 35.5t87 -35.5t36 -86.5t-36 -87t-87 -36t-87 36t-36 87z" />
<glyph unicode="&#x2026;" horiz-adv-x="1449" d="M172 59q0 29 20.5 49.5t49.5 20.5t49 -20.5t20 -49.5t-20 -49t-49 -20t-49.5 20t-20.5 49zM655 59q0 29 20.5 49.5t49.5 20.5t49.5 -20.5t20.5 -49.5t-20.5 -49t-49.5 -20t-49.5 20t-20.5 49zM1139 59q0 29 20 49.5t49 20.5t49.5 -20.5t20.5 -49.5t-20.5 -49t-49.5 -20 t-49 20t-20 49z" />
<glyph unicode="&#x202f;" horiz-adv-x="383" />
<glyph unicode="&#x2030;" horiz-adv-x="2621" d="M164 1094q0 185 77.5 297t213.5 112t213 -112t77 -297t-77 -297.5t-213 -112.5t-213.5 112.5t-77.5 297.5zM242 1094q0 -156 56.5 -248t156.5 -92t156.5 92t56.5 248t-56.5 248t-156.5 92t-156.5 -92t-56.5 -248zM614 10l549 1487l70 -24l-549 -1487zM1106 389 q0 185 77.5 297.5t213.5 112.5t213.5 -112.5t77.5 -297.5t-77.5 -297t-213.5 -112t-213.5 112t-77.5 297zM1184 389q0 -156 56.5 -248t156.5 -92t156.5 92t56.5 248t-56.5 248t-156.5 92t-156.5 -92t-56.5 -248zM1876 389q0 185 77.5 297.5t213.5 112.5t213.5 -112.5 t77.5 -297.5t-77.5 -297t-213.5 -112t-213.5 112t-77.5 297zM1954 389q0 -156 56.5 -248t156.5 -92t156.5 92t56.5 248t-56.5 248t-156.5 92t-156.5 -92t-56.5 -248z" />
<glyph unicode="&#x2039;" horiz-adv-x="757" d="M156 625l368 477l58 -47l-334 -430l334 -430l-58 -48z" />
<glyph unicode="&#x203a;" horiz-adv-x="757" d="M176 195l334 430l-334 430l57 47l369 -477l-369 -478z" />
<glyph unicode="&#x205f;" horiz-adv-x="478" />
<glyph unicode="&#x20ac;" horiz-adv-x="1474" d="M152 539v65h233q-8 86 -8 137q0 72 10 154h-235v66h245q26 135 86 240.5t143.5 170.5t182.5 98t209 33q108 0 199.5 -20.5t146.5 -55.5l-33 -65q-47 29 -131.5 48.5t-181.5 19.5q-199 0 -346.5 -117t-196.5 -352h651v-66h-661q-10 -78 -10 -154q0 -51 8 -137h663v-65 h-653q23 -123 75.5 -218t126 -152.5t160 -86.5t183.5 -29t181.5 19.5t131.5 48.5l33 -66q-55 -34 -146.5 -54.5t-199.5 -20.5q-112 0 -212.5 34.5t-184 101.5t-143.5 175.5t-85 247.5h-241z" />
<glyph unicode="&#x2122;" horiz-adv-x="1957" d="M123 1417v66h614v-66h-270v-815h-74v815h-270zM815 602l127 881h111l233 -711l27 -100h4q12 55 26 100l234 711h111l127 -881h-74l-103 725l-8 96h-4q-13 -51 -27 -96l-239 -725h-90l-240 725l-26 96h-5q-2 -51 -8 -96l-102 -725h-74z" />
<glyph unicode="&#x221a;" horiz-adv-x="1581" d="M61 629v73h267l334 -905l51 -155h4q20 83 43 155l592 1811h86l-678 -2048h-90l-398 1069h-211z" />
<glyph unicode="&#x221e;" horiz-adv-x="1966" d="M143 666q0 200 112.5 329t287.5 129q54 0 101 -11t83 -28.5t69.5 -47.5t57 -58t49 -71t42 -76t38.5 -82q22 49 38.5 82t42 76t49 71t57 58t69.5 47.5t83 28.5t101 11q175 0 287.5 -129t112.5 -329t-112.5 -329.5t-287.5 -129.5q-54 0 -101 11.5t-83 28.5t-69.5 47 t-57 58.5t-49 71.5t-42 76t-38.5 82q-22 -49 -38.5 -82t-42 -76t-49 -71.5t-57 -58.5t-69.5 -47t-83 -28.5t-101 -11.5q-175 0 -287.5 129.5t-112.5 329.5zM221 666q0 -174 90 -282t232 -108q47 0 89.5 12.5t72.5 27t62.5 50.5t50 57t46 74.5t38 74.5t37.5 84q3 7 5 10 q-1 3 -4 9q-73 164 -120 230q-101 142 -258 150h-19q-142 0 -232 -107.5t-90 -281.5zM1022 666q73 -164 116 -227q97 -144 242 -161q21 -2 43 -2q142 0 232 108t90 282t-90 281.5t-232 107.5q-165 0 -270 -141q-50 -67 -123 -231q-2 -3 -4 -8z" />
<glyph unicode="&#x2248;" d="M154 412q31 79 94 124.5t147 45.5q54 0 109.5 -22.5t95 -49.5t91 -49.5t97.5 -22.5q129 0 189 137l57 -40q-31 -79 -94 -124.5t-147 -45.5q-54 0 -109.5 22.5t-95.5 49t-91.5 49t-97.5 22.5q-128 0 -188 -137zM154 797q31 79 94 124.5t147 45.5q54 0 109.5 -22.5 t95 -49.5t91 -49.5t97.5 -22.5q129 0 189 138l57 -41q-31 -79 -94 -124.5t-147 -45.5q-54 0 -109.5 22.5t-95.5 49t-91.5 49t-97.5 22.5q-128 0 -188 -137z" />
<glyph unicode="&#x2260;" d="M164 436v74h313l164 311h-477v74h518l125 238l57 -31l-108 -207h268v-74h-307l-166 -311h473v-74h-512l-137 -258l-58 31l121 227h-274z" />
<glyph unicode="&#x2264;" d="M164 0v74h860v-74h-860zM164 696v62l860 366v-82l-768 -315l768 -315v-82z" />
<glyph unicode="&#x2265;" d="M164 0v74h860v-74h-860zM164 330v82l768 315l-768 315v82l860 -366v-62z" />
<glyph unicode="&#xe000;" horiz-adv-x="1105" d="M0 0v1106h1106v-1106h-1106z" />
</font>
</defs>
</svg>
